<svg width="353" height="343" viewBox="0 0 353 343" fill="none" xmlns="http://www.w3.org/2000/svg">
<g id="Frame 23">
<g id="_x34_04">
<g id="Group">
<path id="Vector" d="M76.0371 220.005H15.1821V192.53L76.0371 120.193H105.152V194.088H120.242V220.005H105.152V242.477H76.0371V220.005ZM76.0371 194.088V156.25L43.8811 194.088H76.0371Z" fill="#EFF1C5"/>
<path id="Vector_2" d="M130.659 181.868C130.659 159.014 134.772 143.022 143.002 133.89C151.231 124.759 163.764 120.193 180.606 120.193C188.697 120.193 195.341 121.192 200.535 123.187C205.729 125.183 209.967 127.78 213.247 130.978C216.527 134.177 219.111 137.539 220.997 141.066C222.884 144.592 224.401 148.707 225.549 153.41C227.79 162.377 228.911 171.727 228.911 181.459C228.911 203.274 225.22 219.241 217.839 229.355C210.457 239.471 197.745 244.527 179.702 244.527C169.586 244.527 161.412 242.913 155.18 239.688C148.946 236.463 143.833 231.733 139.843 225.5C136.943 221.072 134.688 215.016 133.077 207.334C131.464 199.652 130.659 191.164 130.659 181.868ZM163.793 181.95C163.793 197.26 165.146 207.717 167.852 213.322C170.559 218.926 174.482 221.728 179.621 221.728C183.011 221.728 185.95 220.539 188.438 218.16C190.926 215.782 192.757 212.024 193.934 206.884C195.109 201.745 195.697 193.734 195.697 182.853C195.697 166.889 194.344 156.158 191.638 150.663C188.931 145.167 184.872 142.42 179.458 142.42C173.935 142.42 169.944 145.223 167.483 150.827C165.023 156.431 163.793 166.806 163.793 181.95Z" fill="#EFF1C5"/>
<path id="Vector_3" d="M300.101 220.005H239.246V192.53L300.101 120.193H329.216V194.088H344.306V220.005H329.216V242.477H300.101V220.005ZM300.101 194.088V156.25L267.946 194.088H300.101Z" fill="#EFF1C5"/>
</g>
</g>
<g id="Planets">
<g id="Group_2">
<g id="Group_3" opacity="0.3">
<path id="Vector_4" d="M129.309 77.978C129.309 79.008 128.474 79.843 127.444 79.843C126.414 79.843 125.579 79.008 125.579 77.978C125.579 76.948 126.414 76.113 127.444 76.113C128.474 76.113 129.309 76.948 129.309 77.978Z" fill="#EFF1C5"/>
<path id="Vector_5" d="M1.32301 149.812C2.05368 149.812 2.646 149.22 2.646 148.489C2.646 147.758 2.05368 147.166 1.32301 147.166C0.592333 147.166 0 147.758 0 148.489C0 149.22 0.592333 149.812 1.32301 149.812Z" fill="#EFF1C5"/>
<path id="Vector_6" d="M219.411 342.586C220.456 342.586 221.304 341.739 221.304 340.693C221.304 339.648 220.456 338.8 219.411 338.8C218.366 338.8 217.518 339.648 217.518 340.693C217.518 341.739 218.366 342.586 219.411 342.586Z" fill="#EFF1C5"/>
<path id="Vector_7" d="M264.855 265.683C265.586 265.683 266.178 265.091 266.178 264.36C266.178 263.629 265.586 263.037 264.855 263.037C264.124 263.037 263.532 263.629 263.532 264.36C263.532 265.091 264.124 265.683 264.855 265.683Z" fill="#EFF1C5"/>
<path id="Vector_8" d="M352.53 27.979C352.53 28.71 351.938 29.302 351.207 29.302C350.476 29.302 349.884 28.71 349.884 27.979C349.884 27.248 350.476 26.656 351.207 26.656C351.938 26.656 352.53 27.248 352.53 27.979Z" fill="#EFF1C5"/>
<path id="Vector_9" d="M101.111 1.323C101.111 2.054 100.519 2.646 99.788 2.646C99.057 2.646 98.465 2.054 98.465 1.323C98.465 0.591998 99.057 0 99.788 0C100.519 0 101.111 0.591998 101.111 1.323Z" fill="#EFF1C5"/>
<path id="Vector_10" d="M206.052 70.626C206.783 70.626 207.375 70.0337 207.375 69.303C207.375 68.5723 206.783 67.98 206.052 67.98C205.321 67.98 204.729 68.5723 204.729 69.303C204.729 70.0337 205.321 70.626 206.052 70.626Z" fill="#EFF1C5"/>
</g>
<g id="Group_4">
<g id="Group_5">
<path id="Vector_11" d="M69.59 70.631C81.6906 70.631 91.5 60.8216 91.5 48.721C91.5 36.6205 81.6906 26.811 69.59 26.811C57.4894 26.811 47.68 36.6205 47.68 48.721C47.68 60.8216 57.4894 70.631 69.59 70.631Z" fill="#EFF1C5"/>
<path id="Vector_12" opacity="0.7" d="M69.59 70.631C81.6906 70.631 91.5 60.8216 91.5 48.721C91.5 36.6205 81.6906 26.811 69.59 26.811C57.4894 26.811 47.68 36.6205 47.68 48.721C47.68 60.8216 57.4894 70.631 69.59 70.631Z" fill="white"/>
</g>
<path id="Vector_13" opacity="0.2" d="M62.039 32.1899C58.968 32.1899 56.053 32.8249 53.398 33.9599C49.848 37.8529 47.682 43.0379 47.682 48.7219C47.682 60.8189 57.489 70.6259 69.586 70.6259C72.667 70.6259 75.603 69.9909 78.269 68.8459C78.269 68.8459 78.269 68.8459 78.269 68.8359C81.798 64.9419 83.953 59.7779 83.953 54.1049C83.954 41.9969 74.147 32.1899 62.039 32.1899Z" fill="#EFF1C5"/>
<path id="Vector_14" opacity="0.2" d="M59.861 37.983C59.861 39.089 58.964 39.986 57.858 39.986C56.752 39.986 55.855 39.089 55.855 37.983C55.855 36.877 56.752 35.98 57.858 35.98C58.964 35.98 59.861 36.877 59.861 37.983Z" fill="#EFF1C5"/>
<path id="Vector_15" opacity="0.2" d="M83.421 35.9801C83.421 37.0861 82.524 37.9831 81.418 37.9831C80.312 37.9831 79.415 37.0861 79.415 35.9801C79.415 34.8741 80.312 33.9771 81.418 33.9771C82.524 33.9781 83.421 34.8741 83.421 35.9801Z" fill="#EFF1C5"/>
<path id="Vector_16" opacity="0.2" d="M79.415 50.2612C79.415 52.0712 77.948 53.5392 76.137 53.5392C74.327 53.5392 72.859 52.0712 72.859 50.2612C72.859 48.4512 74.326 46.9832 76.137 46.9832C77.947 46.9832 79.415 48.4512 79.415 50.2612Z" fill="#EFF1C5"/>
<path id="Vector_17" opacity="0.2" d="M68.999 59.6061C68.999 62.0261 67.037 63.9871 64.618 63.9871C62.198 63.9871 60.237 62.0251 60.237 59.6061C60.237 57.1861 62.199 55.2251 64.618 55.2251C67.037 55.2251 68.999 57.1871 68.999 59.6061Z" fill="#EFF1C5"/>
</g>
<g id="Group_6">
<g id="Group_7">
<path id="Vector_18" d="M329.264 313.064C331.704 302.73 325.305 292.375 314.971 289.935C304.638 287.495 294.283 293.894 291.843 304.227C289.403 314.561 295.802 324.916 306.135 327.356C316.469 329.796 326.824 323.397 329.264 313.064Z" fill="#EFF1C5"/>
<path id="Vector_19" opacity="0.3" d="M329.264 313.064C331.704 302.73 325.305 292.375 314.971 289.935C304.638 287.495 294.283 293.894 291.843 304.227C289.403 314.561 295.802 324.916 306.135 327.356C316.469 329.796 326.824 323.397 329.264 313.064Z" fill="white"/>
</g>
<path id="Vector_20" opacity="0.4" d="M322.69 293.699C320.941 293.168 319.078 292.887 317.152 292.887C306.533 292.887 297.923 301.497 297.923 312.115C297.923 318.133 300.682 323.494 305.013 327.023C306.762 327.554 308.625 327.835 310.552 327.835C321.171 327.835 329.78 319.225 329.78 308.607C329.78 302.59 327.021 297.218 322.69 293.699Z" fill="#EFF1C5"/>
<path id="Vector_21" d="M292.187 314.308C271.653 323.97 286.971 331.417 315.899 321.021C342.683 311.395 352.866 299.252 328.951 303.015C330.185 308.123 296.639 321.194 292.187 314.308Z" fill="#EFF1C5"/>
</g>
</g>
</g>
<g id="Astronaut">
<g id="Group_8">
<path id="Vector_22" opacity="0.2" d="M322.454 120.19C295.564 138.36 260.754 162.32 251.144 220H249.094C258.444 163.02 291.984 138.43 318.884 120.19H322.454Z" fill="#21212E"/>
<g id="Group_9">
<path id="Vector_23" d="M183.376 300.627C166.406 300.628 149.567 292.965 141.39 280.441C136.337 272.702 130.47 256.491 147.945 234.863L149.501 236.121C137.139 251.42 134.853 266.771 143.065 279.348C153.059 294.657 176.661 302.354 196.795 296.876C217.423 291.263 229.947 273.319 231.156 247.648C235.291 159.841 281.94 132.793 316.002 113.043C337.164 100.773 352.454 91.9069 349.093 73.2049C348.627 70.6099 347.592 68.8169 345.93 67.7239C341.577 64.8559 333.077 66.8379 323.236 69.1319C303.93 73.6289 277.49 79.7889 261.739 52.9979L263.463 51.9839C278.469 77.5069 303.04 71.7839 322.782 67.1829C333.072 64.7869 341.959 62.7159 347.03 66.0519C349.175 67.4639 350.494 69.6879 351.062 72.8509C354.671 92.9329 338.049 102.571 317.005 114.773C283.341 134.292 237.237 161.024 233.153 247.741C231.901 274.337 218.84 292.949 197.319 298.805C192.784 300.039 188.073 300.626 183.376 300.627Z" fill="#EFF1C5"/>
<path id="Vector_24" opacity="0.2" d="M183.376 300.627C166.406 300.628 149.567 292.965 141.39 280.441C136.337 272.702 130.47 256.491 147.945 234.863L149.501 236.121C137.139 251.42 134.853 266.771 143.065 279.348C153.059 294.657 176.661 302.354 196.795 296.876C217.423 291.263 229.947 273.319 231.156 247.648C235.291 159.841 281.94 132.793 316.002 113.043C337.164 100.773 352.454 91.9069 349.093 73.2049C348.627 70.6099 347.592 68.8169 345.93 67.7239C341.577 64.8559 333.077 66.8379 323.236 69.1319C303.93 73.6289 277.49 79.7889 261.739 52.9979L263.463 51.9839C278.469 77.5069 303.04 71.7839 322.782 67.1829C333.072 64.7869 341.959 62.7159 347.03 66.0519C349.175 67.4639 350.494 69.6879 351.062 72.8509C354.671 92.9329 338.049 102.571 317.005 114.773C283.341 134.292 237.237 161.024 233.153 247.741C231.901 274.337 218.84 292.949 197.319 298.805C192.784 300.039 188.073 300.626 183.376 300.627Z" fill="white"/>
</g>
<g id="Group_10">
<g id="Group_11">
<path id="Vector_25" d="M241.115 29.309C247.97 29.184 254.697 31.443 254.697 31.443C254.697 31.443 265.662 50.214 266.999 54.51C266.538 58.75 259.384 65.701 259.384 65.701L241.115 29.309Z" fill="#EFF1C5"/>
<path id="Vector_26" opacity="0.3" d="M241.115 29.309C247.97 29.184 254.697 31.443 254.697 31.443C254.697 31.443 265.662 50.214 266.999 54.51C266.538 58.75 259.384 65.701 259.384 65.701L241.115 29.309Z" fill="white"/>
</g>
<g id="Group_12">
<g id="Group_13">
<path id="Vector_27" d="M273.696 120.493C269.56 115.245 265.499 109.899 262.137 104.108C261.297 102.661 260.501 101.187 259.748 99.693C259.32 98.844 258.906 97.988 258.504 97.126C258.153 96.373 257.378 95.264 257.3 94.442C256.099 81.77 260.437 72.442 256.272 62.27L239.801 68.707C239.801 68.707 241.202 86.829 244.399 97.67C246.383 104.396 250.874 110.219 255.202 115.607C256.556 117.293 257.861 119.017 259.212 120.705C260.491 122.303 261.924 123.769 263.206 125.359C265.153 127.772 265.801 130.075 264.321 132.92C264.242 133.072 264.159 133.223 264.074 133.373C263.654 134.114 265.62 134.954 266.855 133.394C268.897 130.813 268.576 130.972 270.317 128.771C271.374 127.435 272.588 125.992 273.636 124.738C274.66 123.515 274.683 121.745 273.696 120.493Z" fill="#EFF1C5"/>
<path id="Vector_28" opacity="0.7" d="M273.696 120.493C269.56 115.245 265.499 109.899 262.137 104.108C261.297 102.661 260.501 101.187 259.748 99.693C259.32 98.844 258.906 97.988 258.504 97.126C258.153 96.373 257.378 95.264 257.3 94.442C256.099 81.77 260.437 72.442 256.272 62.27L239.801 68.707C239.801 68.707 241.202 86.829 244.399 97.67C246.383 104.396 250.874 110.219 255.202 115.607C256.556 117.293 257.861 119.017 259.212 120.705C260.491 122.303 261.924 123.769 263.206 125.359C265.153 127.772 265.801 130.075 264.321 132.92C264.242 133.072 264.159 133.223 264.074 133.373C263.654 134.114 265.62 134.954 266.855 133.394C268.897 130.813 268.576 130.972 270.317 128.771C271.374 127.435 272.588 125.992 273.636 124.738C274.66 123.515 274.683 121.745 273.696 120.493Z" fill="white"/>
</g>
<path id="Vector_29" opacity="0.3" d="M269.669 115.278C267.464 117.943 262.981 121.4 261.005 122.801C261.435 123.28 261.861 123.769 262.288 124.258C266.356 121.601 269.572 118.154 270.792 116.754C270.415 116.269 270.042 115.773 269.669 115.278Z" fill="#EFF1C5"/>
<path id="Vector_30" opacity="0.3" d="M273.692 120.495C273.654 120.443 273.614 120.401 273.576 120.35C272.882 121.073 272.393 122.226 272.311 123.52C272.245 124.414 272.395 125.232 272.688 125.871C273.021 125.485 273.332 125.103 273.637 124.74C274.665 123.516 274.679 121.747 273.692 120.495Z" fill="#EFF1C5"/>
</g>
<g id="Group_14">
<g id="Group_15">
<path id="Vector_31" d="M237.199 41.3112C235.476 43.8172 233.445 46.2872 230.824 48.5052C229.523 49.6202 228.038 50.6292 226.407 51.4852C225.584 51.9052 224.719 52.2692 223.824 52.5702L223.149 52.7872L222.931 52.8552C222.773 52.9032 222.614 52.9462 222.454 52.9842C222.152 53.0522 221.849 53.0982 221.581 53.1202C220.498 53.2022 219.713 53.0482 219.066 52.8872C217.789 52.5392 216.936 52.0742 216.129 51.6232C215.334 51.1642 214.636 50.6942 213.975 50.2092C212.673 49.2182 211.495 48.2232 210.397 47.1612C208.187 45.0512 206.227 42.8632 204.407 40.4262C203.577 39.3152 203.805 37.7422 204.916 36.9132C205.773 36.2722 206.906 36.2622 207.759 36.8012L207.835 36.8502C210.195 38.3482 212.576 39.9282 214.899 41.3422C216.072 42.0342 217.218 42.7302 218.345 43.2722C218.899 43.5522 219.442 43.8072 219.932 43.9882C220.409 44.1742 220.885 44.2802 221.009 44.2552C221.061 44.2522 220.999 44.1812 220.631 44.1942C220.542 44.1992 220.416 44.2112 220.288 44.2392C220.214 44.2532 220.142 44.2722 220.07 44.2952C220.001 44.3182 220.099 44.2762 220.105 44.2702L220.436 44.1012C220.876 43.8772 221.298 43.5972 221.726 43.3122C222.582 42.7332 223.397 41.9982 224.229 41.1922C225.875 39.5572 227.459 37.5222 229.131 35.4062L229.153 35.3772C230.865 33.2092 234.011 32.8402 236.179 34.5522C238.255 36.1912 238.672 39.1602 237.199 41.3112Z" fill="#EFF1C5"/>
<path id="Vector_32" opacity="0.7" d="M237.199 41.3112C235.476 43.8172 233.445 46.2872 230.824 48.5052C229.523 49.6202 228.038 50.6292 226.407 51.4852C225.584 51.9052 224.719 52.2692 223.824 52.5702L223.149 52.7872L222.931 52.8552C222.773 52.9032 222.614 52.9462 222.454 52.9842C222.152 53.0522 221.849 53.0982 221.581 53.1202C220.498 53.2022 219.713 53.0482 219.066 52.8872C217.789 52.5392 216.936 52.0742 216.129 51.6232C215.334 51.1642 214.636 50.6942 213.975 50.2092C212.673 49.2182 211.495 48.2232 210.397 47.1612C208.187 45.0512 206.227 42.8632 204.407 40.4262C203.577 39.3152 203.805 37.7422 204.916 36.9132C205.773 36.2722 206.906 36.2622 207.759 36.8012L207.835 36.8502C210.195 38.3482 212.576 39.9282 214.899 41.3422C216.072 42.0342 217.218 42.7302 218.345 43.2722C218.899 43.5522 219.442 43.8072 219.932 43.9882C220.409 44.1742 220.885 44.2802 221.009 44.2552C221.061 44.2522 220.999 44.1812 220.631 44.1942C220.542 44.1992 220.416 44.2112 220.288 44.2392C220.214 44.2532 220.142 44.2722 220.07 44.2952C220.001 44.3182 220.099 44.2762 220.105 44.2702L220.436 44.1012C220.876 43.8772 221.298 43.5972 221.726 43.3122C222.582 42.7332 223.397 41.9982 224.229 41.1922C225.875 39.5572 227.459 37.5222 229.131 35.4062L229.153 35.3772C230.865 33.2092 234.011 32.8402 236.179 34.5522C238.255 36.1912 238.672 39.1602 237.199 41.3112Z" fill="white"/>
</g>
<g id="Group_16">
<path id="Vector_33" d="M200.642 34.776L201.814 36.7421C201.814 36.7421 202.709 39.358 204.5 39.842L209.354 38.2701L209.111 37.862C209.113 37.863 209.116 37.863 209.118 37.863C208.496 36.916 208.563 35.09 208.782 33.571C209 32.052 208.212 31.998 207.63 32.376C207.294 32.594 207.056 33.2871 206.783 34.0341C206.544 33.7051 206.288 33.388 205.999 33.1L204.516 31.623C203.876 30.986 202.851 30.957 202.176 31.557L200.974 32.625C200.362 33.169 200.223 34.072 200.642 34.776Z" fill="#EFF1C5"/>
<path id="Vector_34" opacity="0.7" d="M200.642 34.776L201.814 36.7421C201.814 36.7421 202.709 39.358 204.5 39.842L209.354 38.2701L209.111 37.862C209.113 37.863 209.116 37.863 209.118 37.863C208.496 36.916 208.563 35.09 208.782 33.571C209 32.052 208.212 31.998 207.63 32.376C207.294 32.594 207.056 33.2871 206.783 34.0341C206.544 33.7051 206.288 33.388 205.999 33.1L204.516 31.623C203.876 30.986 202.851 30.957 202.176 31.557L200.974 32.625C200.362 33.169 200.223 34.072 200.642 34.776Z" fill="white"/>
</g>
</g>
<g id="Group_17">
<path id="Vector_35" d="M246.031 27.5839C241.382 28.7119 234.995 31.3649 230.682 34.0519C229.153 35.0039 228.39 36.8119 228.75 38.5769C230.674 48.0169 235.064 60.6619 239.803 68.7059L261.914 59.5589C262.066 55.6589 256.698 43.0389 251.23 30.8419C250.248 28.6479 248.367 27.0179 246.031 27.5839Z" fill="#EFF1C5"/>
<path id="Vector_36" opacity="0.8" d="M246.031 27.5839C241.382 28.7119 234.995 31.3649 230.682 34.0519C229.153 35.0039 228.39 36.8119 228.75 38.5769C230.674 48.0169 235.064 60.6619 239.803 68.7059L261.914 59.5589C262.066 55.6589 256.698 43.0389 251.23 30.8419C250.248 28.6479 248.367 27.0179 246.031 27.5839Z" fill="white"/>
</g>
<path id="Vector_37" opacity="0.3" d="M254.653 38.574L250.265 37.103C251.247 39.67 254.798 42.924 257.295 44.835C256.472 42.829 255.58 40.732 254.653 38.574Z" fill="#EFF1C5"/>
<g id="Group_18">
<path id="Vector_38" d="M244.574 17.6799C242.749 14.1989 238.8 12.4469 234.058 12.8429C230.06 13.1769 226.514 17.2589 226.935 19.4649C227.355 21.6709 230.72 22.6049 231.329 23.3709L228.556 25.3809C227.176 26.3819 226.906 28.3279 227.96 29.6679C229.127 31.1499 230.663 32.6979 231.558 33.7909C239.222 33.5919 244.89 30.6679 246.932 27.8549C246.198 24.2759 246.389 21.1419 244.574 17.6799Z" fill="#EFF1C5"/>
<path id="Vector_39" opacity="0.8" d="M244.574 17.6799C242.749 14.1989 238.8 12.4469 234.058 12.8429C230.06 13.1769 226.514 17.2589 226.935 19.4649C227.355 21.6709 230.72 22.6049 231.329 23.3709L228.556 25.3809C227.176 26.3819 226.906 28.3279 227.96 29.6679C229.127 31.1499 230.663 32.6979 231.558 33.7909C239.222 33.5919 244.89 30.6679 246.932 27.8549C246.198 24.2759 246.389 21.1419 244.574 17.6799Z" fill="white"/>
</g>
<path id="Vector_40" d="M240.818 19.8359C242.34 23.7319 240.417 28.1239 236.521 29.6459C232.625 31.1679 228.233 29.2449 226.711 25.3489C225.189 21.4539 227.112 17.0609 231.008 15.5389C234.903 14.0169 239.295 15.9409 240.818 19.8359Z" fill="#21212E"/>
<g id="Group_19">
<g id="Group_20">
<path id="Vector_41" d="M305.745 109.956C305.634 106.667 305.492 106.996 305.396 104.192C305.338 102.489 305.331 100.603 305.32 98.9689C305.309 97.3739 304.182 96.0089 302.619 95.6919C301.294 95.4229 299.965 95.1669 298.642 94.8849C296.916 94.5169 295.21 94.1209 293.515 93.6289C292.201 93.2469 290.898 92.8259 289.61 92.3619C288.23 91.8649 286.869 91.3199 285.521 90.7419C283.945 90.0659 282.388 89.3459 280.843 88.6039C279.118 87.7759 277.406 86.9199 275.7 86.0529C269.119 75.1579 268.977 67.9789 261.914 59.5579L246.754 66.4159C246.754 66.4159 257.893 86.1809 265.479 94.5609C269.846 99.3839 276.697 101.558 282.807 103.136C287.215 104.274 291.685 105.145 296.16 105.967C297.9 106.286 299.791 106.41 301.288 107.449C302.467 108.267 303.077 109.544 303.425 110.901C303.496 111.178 303.556 111.458 303.61 111.74C303.77 112.577 305.813 111.945 305.745 109.956Z" fill="#EFF1C5"/>
<path id="Vector_42" opacity="0.8" d="M305.745 109.956C305.634 106.667 305.492 106.996 305.396 104.192C305.338 102.489 305.331 100.603 305.32 98.9689C305.309 97.3739 304.182 96.0089 302.619 95.6919C301.294 95.4229 299.965 95.1669 298.642 94.8849C296.916 94.5169 295.21 94.1209 293.515 93.6289C292.201 93.2469 290.898 92.8259 289.61 92.3619C288.23 91.8649 286.869 91.3199 285.521 90.7419C283.945 90.0659 282.388 89.3459 280.843 88.6039C279.118 87.7759 277.406 86.9199 275.7 86.0529C269.119 75.1579 268.977 67.9789 261.914 59.5579L246.754 66.4159C246.754 66.4159 257.893 86.1809 265.479 94.5609C269.846 99.3839 276.697 101.558 282.807 103.136C287.215 104.274 291.685 105.145 296.16 105.967C297.9 106.286 299.791 106.41 301.288 107.449C302.467 108.267 303.077 109.544 303.425 110.901C303.496 111.178 303.556 111.458 303.61 111.74C303.77 112.577 305.813 111.945 305.745 109.956Z" fill="white"/>
</g>
<path id="Vector_43" opacity="0.3" d="M298.057 94.7598C297.46 94.6288 296.854 94.4948 296.251 94.3518C296.298 97.8048 294.679 103.769 294.084 105.576C294.715 105.695 295.355 105.817 295.986 105.937C297.741 101.192 298.017 96.1688 298.057 94.7598Z" fill="#EFF1C5"/>
<path id="Vector_44" opacity="0.3" d="M305.318 98.9699C305.307 97.3709 304.184 96.0089 302.624 95.6889C302.31 95.6249 301.986 95.5569 301.67 95.5029C301.736 96.4429 302.32 97.5339 303.298 98.3999C303.939 98.9779 304.664 99.3619 305.33 99.5429C305.32 99.3439 305.319 99.1569 305.318 98.9699Z" fill="#EFF1C5"/>
</g>
<path id="Vector_45" d="M239.403 19.9C239.808 21.416 238.111 23.01 236.753 21.699C235.651 20.635 233.991 18.853 232.636 18.006C231.244 17.135 233.1 15.619 235.286 16.207C237.327 16.757 238.998 18.383 239.403 19.9Z" fill="white"/>
<g id="Group_21">
<path id="Vector_46" d="M239.518 68.2198C238.813 68.4798 240.101 69.6758 240.101 69.6758C240.101 69.6758 254.071 64.8888 262.596 59.9598C262.668 58.9288 261.918 58.3818 261.918 58.3818C261.918 58.3818 251.546 63.7858 239.518 68.2198Z" fill="#EFF1C5"/>
<path id="Vector_47" opacity="0.5" d="M239.518 68.2198C238.813 68.4798 240.101 69.6758 240.101 69.6758C240.101 69.6758 254.071 64.8888 262.596 59.9598C262.668 58.9288 261.918 58.3818 261.918 58.3818C261.918 58.3818 251.546 63.7858 239.518 68.2198Z" fill="white"/>
</g>
<g id="Group_22">
<g id="Group_23">
<path id="Vector_48" d="M249.817 26.923C252.575 28.316 255.171 29.791 257.764 31.424C259.055 32.237 260.34 33.072 261.606 33.973C262.882 34.856 264.141 35.787 265.404 36.835L265.878 37.223L266.469 37.756C266.889 38.126 267.197 38.467 267.506 38.807C267.83 39.158 268.097 39.496 268.36 39.833C268.633 40.172 268.892 40.509 269.125 40.841C270.114 42.169 270.92 43.52 271.711 44.86C273.248 47.577 274.579 50.29 275.677 53.209C276.167 54.511 275.509 55.963 274.206 56.454C273.228 56.822 272.164 56.542 271.488 55.828L271.439 55.774C269.43 53.646 267.503 51.401 265.564 49.316C263.667 47.237 261.652 45.103 260.027 44.175C257.757 42.759 255.229 41.353 252.717 39.968L245.154 35.77L245.135 35.76C242.72 34.42 241.849 31.376 243.189 28.961C244.498 26.606 247.434 25.723 249.817 26.923Z" fill="#EFF1C5"/>
<path id="Vector_49" opacity="0.8" d="M249.817 26.923C252.575 28.316 255.171 29.791 257.764 31.424C259.055 32.237 260.34 33.072 261.606 33.973C262.882 34.856 264.141 35.787 265.404 36.835L265.878 37.223L266.469 37.756C266.889 38.126 267.197 38.467 267.506 38.807C267.83 39.158 268.097 39.496 268.36 39.833C268.633 40.172 268.892 40.509 269.125 40.841C270.114 42.169 270.92 43.52 271.711 44.86C273.248 47.577 274.579 50.29 275.677 53.209C276.167 54.511 275.509 55.963 274.206 56.454C273.228 56.822 272.164 56.542 271.488 55.828L271.439 55.774C269.43 53.646 267.503 51.401 265.564 49.316C263.667 47.237 261.652 45.103 260.027 44.175C257.757 42.759 255.229 41.353 252.717 39.968L245.154 35.77L245.135 35.76C242.72 34.42 241.849 31.376 243.189 28.961C244.498 26.606 247.434 25.723 249.817 26.923Z" fill="white"/>
</g>
<g id="Group_24">
<path id="Vector_50" d="M278.09 58.098L277.241 55.973C277.241 55.973 276.767 53.249 275.074 52.49L270.034 53.282L270.21 53.723C270.208 53.722 270.206 53.721 270.203 53.721C270.669 54.753 270.316 56.547 269.862 58.012C269.408 59.478 270.178 59.655 270.812 59.373C271.178 59.21 271.522 58.563 271.908 57.868C272.093 58.231 272.296 58.584 272.536 58.913L273.769 60.604C274.301 61.333 275.309 61.523 276.07 61.036L277.424 60.169C278.115 59.728 278.395 58.859 278.09 58.098Z" fill="#EFF1C5"/>
<path id="Vector_51" opacity="0.8" d="M278.09 58.098L277.241 55.973C277.241 55.973 276.767 53.249 275.074 52.49L270.034 53.282L270.21 53.723C270.208 53.722 270.206 53.721 270.203 53.721C270.669 54.753 270.316 56.547 269.862 58.012C269.408 59.478 270.178 59.655 270.812 59.373C271.178 59.21 271.522 58.563 271.908 57.868C272.093 58.231 272.296 58.584 272.536 58.913L273.769 60.604C274.301 61.333 275.309 61.523 276.07 61.036L277.424 60.169C278.115 59.728 278.395 58.859 278.09 58.098Z" fill="white"/>
</g>
</g>
<g id="Group_25">
<g id="Group_26">
<path id="Vector_52" opacity="0.3" d="M245.593 38.417L244.374 38.516L236.889 56.6C237.329 56.63 237.733 56.593 238.107 56.501C238.107 56.501 247.867 52.864 250.821 51.531C248.833 47.411 245.593 38.417 245.593 38.417Z" fill="#EFF1C5"/>
<path id="Vector_53" d="M231.925 43.1621C232.342 46.4191 234.784 53.3411 236.89 56.6001C240.545 55.3401 246.65 52.9631 249.604 51.6301C247.615 47.5111 245.521 41.8351 244.375 38.5171C241.226 38.7261 234.363 41.3111 231.925 43.1621Z" fill="white"/>
</g>
<path id="Vector_54" opacity="0.3" d="M239.357 47.0729C238.949 48.4379 237.511 49.2129 236.147 48.8039C234.783 48.3949 234.007 46.9579 234.416 45.5939C234.825 44.2289 236.262 43.4539 237.626 43.8629C238.99 44.2709 239.765 45.7079 239.357 47.0729Z" fill="#EFF1C5"/>
<path id="Vector_55" opacity="0.6" d="M241.27 43.6281C241.136 44.0751 240.665 44.3291 240.218 44.1951C239.771 44.0611 239.517 43.5901 239.65 43.1431C239.784 42.6961 240.255 42.4421 240.702 42.5761C241.15 42.7091 241.404 43.1801 241.27 43.6281Z" fill="#EFF1C5"/>
<path id="Vector_56" opacity="0.6" d="M243.502 42.7589C243.368 43.2059 242.897 43.4599 242.45 43.3259C242.003 43.1919 241.749 42.7209 241.883 42.2739C242.017 41.8269 242.488 41.5729 242.935 41.7069C243.382 41.8409 243.636 42.3119 243.502 42.7589Z" fill="#EFF1C5"/>
<path id="Vector_57" opacity="0.5" d="M246.648 50.547L237.401 54.201L236.842 52.383L246.089 48.728L246.648 50.547Z" fill="#EFF1C5"/>
</g>
</g>
</g>
</g>
<g id="Rocket">
<g id="Group_27">
<path id="Vector_58" opacity="0.2" d="M195.614 189.53C195.414 197.07 194.854 202.86 193.934 206.88C192.754 212.02 190.924 215.78 188.434 218.16C185.954 220.54 183.014 221.73 179.624 221.73C174.484 221.73 170.554 218.93 167.854 213.32C167.414 212.41 167.014 211.37 166.644 210.21C160.934 215.12 155.614 220.48 150.724 226.24L145.414 232.5C148.284 235.41 151.544 237.8 155.184 239.69C161.414 242.91 169.584 244.53 179.704 244.53C181.484 244.53 183.204 244.48 184.874 244.38C190.994 235.32 196.064 225.58 199.974 215.36L214.824 176.64L195.614 189.53Z" fill="#21212E"/>
<g id="Group_28">
<g id="Group_29">
<path id="Vector_59" d="M61.7449 242.318C67.3419 247.915 79.2469 259.82 79.2469 259.82L128.258 213.653C111.392 207.241 78.5159 225.548 61.7449 242.318Z" fill="#21212E"/>
<path id="Vector_60" d="M122.779 303.352C117.182 297.755 105.277 285.85 105.277 285.85L151.444 236.84C157.856 253.705 139.55 286.581 122.779 303.352Z" fill="#21212E"/>
<g id="Group_30">
<path id="Vector_61" d="M189.756 193.059L208.847 156.25L172.038 175.341C160.212 181.475 149.294 189.218 139.594 198.349L76.8469 257.419L107.677 288.249L166.747 225.502C175.879 215.803 183.622 204.885 189.756 193.059Z" fill="#EFF1C5"/>
<path id="Vector_62" opacity="0.6" d="M189.756 193.059L208.847 156.25L172.038 175.341C160.212 181.475 149.294 189.218 139.594 198.349L76.8469 257.419L107.677 288.249L166.747 225.502C175.879 215.803 183.622 204.885 189.756 193.059Z" fill="white"/>
</g>
<path id="Vector_63" d="M150.555 227.442C157.679 227.442 163.454 221.667 163.454 214.543C163.454 207.419 157.679 201.644 150.555 201.644C143.431 201.644 137.656 207.419 137.656 214.543C137.656 221.667 143.431 227.442 150.555 227.442Z" fill="white"/>
<path id="Vector_64" d="M150.554 222.828C155.13 222.828 158.839 219.119 158.839 214.543C158.839 209.967 155.13 206.258 150.554 206.258C145.978 206.258 142.269 209.967 142.269 214.543C142.269 219.119 145.978 222.828 150.554 222.828Z" fill="#EFF1C5"/>
<path id="Vector_65" opacity="0.3" d="M118.103 277.176L87.9209 246.995L112.632 223.731L141.366 252.465L118.103 277.176Z" fill="#EFF1C5"/>
<g id="Group_31">
<path id="Vector_66" d="M68.5769 269.976C45.9719 271.815 38.4839 286.282 35.9299 305.515C34.6279 315.324 34.0499 325.248 25.8129 330.99C23.5269 332.584 24.6619 336.137 27.4479 336.05C57.7869 335.103 71.9379 320.246 73.7149 314.025C73.1029 317.958 72.2109 321.06 71.2229 323.5C70.2069 326.007 72.9599 328.327 75.2519 326.891C83.7689 321.555 94.4509 311.736 95.1609 295.813C88.8639 286.963 68.5769 269.976 68.5769 269.976Z" fill="#EFF1C5"/>
<path id="Vector_67" opacity="0.2" d="M68.5769 269.976C45.9719 271.815 38.4839 286.282 35.9299 305.515C34.6279 315.324 34.0499 325.248 25.8129 330.99C23.5269 332.584 24.6619 336.137 27.4479 336.05C57.7869 335.103 71.9379 320.246 73.7149 314.025C73.1029 317.958 72.2109 321.06 71.2229 323.5C70.2069 326.007 72.9599 328.327 75.2519 326.891C83.7689 321.555 94.4509 311.736 95.1609 295.813C88.8639 286.963 68.5769 269.976 68.5769 269.976Z" fill="white"/>
</g>
<path id="Vector_68" d="M98.6329 302.66L62.437 266.464L81.72 262.293L102.805 283.377L98.6329 302.66Z" fill="#EFF1C5"/>
</g>
</g>
</g>
</g>
</g>
</svg>
